<svg width="56" height="33" viewBox="0 0 56 33" fill="none" xmlns="http://www.w3.org/2000/svg">
<path d="M16.3395 32.04L9.6759 19.9451H7.80461V32.04H0V0H13.099C15.6244 0 17.7696 0.441196 19.5344 1.32359C21.3296 2.20598 22.6684 3.42308 23.5508 4.97487C24.4332 6.49624 24.8744 8.20017 24.8744 10.0867C24.8744 12.2166 24.2658 14.1183 23.0487 15.7918C21.862 17.4653 20.0973 18.652 17.7544 19.3518L25.1482 32.04H16.3395ZM7.80461 14.4226H12.6426C14.0726 14.4226 15.1376 14.0726 15.8374 13.3728C16.5677 12.673 16.9328 11.6841 16.9328 10.4062C16.9328 9.18906 16.5677 8.2306 15.8374 7.53077C15.1376 6.83094 14.0726 6.48103 12.6426 6.48103H7.80461V14.4226Z" fill="#FFBDBD"/>
<path d="M44.9108 26.3805H32.9529L31.036 32.04H22.8662L34.459 0H43.496L55.0888 32.04H46.8277L44.9108 26.3805ZM42.9026 20.3559L38.9319 8.62615L35.0067 20.3559H42.9026Z" fill="#4C40F7"/>
</svg>
